<?xml version="1.0" encoding="UTF-8" standalone="no"?>
<!-- Created with Inkscape (http://www.inkscape.org/) -->

<svg
   xmlns:dc="http://purl.org/dc/elements/1.1/"
   xmlns:cc="http://creativecommons.org/ns#"
   xmlns:rdf="http://www.w3.org/1999/02/22-rdf-syntax-ns#"
   xmlns:svg="http://www.w3.org/2000/svg"
   xmlns="http://www.w3.org/2000/svg"
   xmlns:xlink="http://www.w3.org/1999/xlink"
   xmlns:sodipodi="http://sodipodi.sourceforge.net/DTD/sodipodi-0.dtd"
   xmlns:inkscape="http://www.inkscape.org/namespaces/inkscape"
   version="1.0"
   width="64"
   height="64"
   id="svg2408"
   style="display:inline"
   inkscape:version="0.48.0 r9654"
   sodipodi:docname="media-skip-forward.svg">
  <sodipodi:namedview
     pagecolor="#ffffff"
     bordercolor="#666666"
     borderopacity="1"
     objecttolerance="10"
     gridtolerance="10"
     guidetolerance="10"
     inkscape:pageopacity="0"
     inkscape:pageshadow="2"
     inkscape:window-width="640"
     inkscape:window-height="480"
     id="namedview54"
     showgrid="false"
     inkscape:zoom="3.09375"
     inkscape:cx="48"
     inkscape:cy="22.141414"
     inkscape:window-x="0"
     inkscape:window-y="24"
     inkscape:window-maximized="0"
     inkscape:current-layer="svg2408" />
  <defs
     id="defs2410">
    <linearGradient
       id="linearGradient3637">
      <stop
         id="stop3639"
         style="stop-color:#f0f0f0;stop-opacity:1"
         offset="0" />
      <stop
         id="stop3641"
         style="stop-color:#dcdcdc;stop-opacity:1"
         offset="1" />
    </linearGradient>
    <linearGradient
       x1="45.447727"
       y1="92.539597"
       x2="45.447727"
       y2="7.0165396"
       id="ButtonShadow"
       gradientUnits="userSpaceOnUse"
       gradientTransform="scale(1.0058652,0.994169)">
      <stop
         id="stop3750"
         style="stop-color:#000000;stop-opacity:1"
         offset="0" />
      <stop
         id="stop3752"
         style="stop-color:#000000;stop-opacity:0.58823532"
         offset="1" />
    </linearGradient>
    <linearGradient
       id="linearGradient3737">
      <stop
         id="stop3739"
         style="stop-color:#ffffff;stop-opacity:1"
         offset="0" />
      <stop
         id="stop3741"
         style="stop-color:#ffffff;stop-opacity:0"
         offset="1" />
    </linearGradient>
    <linearGradient
       id="linearGradient3700">
      <stop
         id="stop3702"
         style="stop-color:#2276c5;stop-opacity:1"
         offset="0" />
      <stop
         id="stop3704"
         style="stop-color:#68baf4;stop-opacity:1"
         offset="1" />
    </linearGradient>
    <filter
       color-interpolation-filters="sRGB"
       id="filter3174">
      <feGaussianBlur
         id="feGaussianBlur3176"
         stdDeviation="1.71" />
    </filter>
    <linearGradient
       x1="36.357143"
       y1="6"
       x2="36.357143"
       y2="63.893143"
       id="linearGradient3188"
       xlink:href="#linearGradient3737"
       gradientUnits="userSpaceOnUse" />
    <radialGradient
       cx="48"
       cy="90.171875"
       r="42"
       fx="48"
       fy="90.171875"
       id="radialGradient3619"
       xlink:href="#linearGradient3737"
       gradientUnits="userSpaceOnUse"
       gradientTransform="matrix(1.1573129,0,0,0.99590774,-7.5510206,0.19713193)" />
    <linearGradient
       x1="48"
       y1="90"
       x2="48"
       y2="5.9877172"
       id="linearGradient2843"
       xlink:href="#linearGradient3700"
       gradientUnits="userSpaceOnUse"
       gradientTransform="translate(0,100)" />
    <clipPath
       id="clipPath3625">
      <path
         d="M 0,0 0,96 96,96 96,0 0,0 z m 12,6 72,0 c 3.324,0 6,2.676 6,6 l 0,72 c 0,3.324 -2.676,6 -6,6 L 12,90 C 8.676,90 6,87.324 6,84 L 6,12 C 6,8.676 8.676,6 12,6 z"
         inkscape:connector-curvature="0"
         id="path3627"
         style="fill:#ffffff;fill-opacity:1;stroke:none" />
    </clipPath>
    <linearGradient
       x1="44.512066"
       y1="6"
       x2="44.512066"
       y2="90.015434"
       id="linearGradient3643"
       xlink:href="#linearGradient3637"
       gradientUnits="userSpaceOnUse" />
    <clipPath
       id="clipPath3649">
      <rect
         width="76"
         height="76"
         rx="4"
         ry="4"
         x="10"
         y="10"
         id="rect3651"
         style="fill:#ffffff;fill-opacity:1;fill-rule:nonzero;stroke:none" />
    </clipPath>
    <filter
       color-interpolation-filters="sRGB"
       id="filter3657">
      <feGaussianBlur
         id="feGaussianBlur3659"
         stdDeviation="1.14" />
    </filter>
    <linearGradient
       id="linearGradient4081">
      <stop
         id="stop4083"
         style="stop-color:#aaaaaa;stop-opacity:1"
         offset="0" />
      <stop
         id="stop4085"
         style="stop-color:#f0f0f0;stop-opacity:1"
         offset="1" />
    </linearGradient>
    <linearGradient
       x1="48"
       y1="72"
       x2="48"
       y2="24"
       id="linearGradient2980"
       xlink:href="#linearGradient4081"
       gradientUnits="userSpaceOnUse" />
    <linearGradient
       inkscape:collect="always"
       xlink:href="#linearGradient4081"
       id="linearGradient3054"
       gradientUnits="userSpaceOnUse"
       x1="48"
       y1="72"
       x2="48"
       y2="24" />
    <linearGradient
       inkscape:collect="always"
       xlink:href="#linearGradient4081"
       id="linearGradient3059"
       gradientUnits="userSpaceOnUse"
       x1="48"
       y1="72"
       x2="48"
       y2="24" />
    <linearGradient
       inkscape:collect="always"
       xlink:href="#linearGradient4081"
       id="linearGradient3075"
       gradientUnits="userSpaceOnUse"
       x1="48"
       y1="72"
       x2="48"
       y2="24" />
  </defs>
  <metadata
     id="metadata2413">
    <rdf:RDF>
      <cc:Work
         rdf:about="">
        <dc:format>image/svg+xml</dc:format>
        <dc:type
           rdf:resource="http://purl.org/dc/dcmitype/StillImage" />
        <dc:title />
      </cc:Work>
    </rdf:RDF>
  </metadata>
  <g
     id="g3065"
     transform="translate(-16,-17)">
    <path
       style="opacity:0.7;fill:#000000;fill-opacity:1;fill-rule:nonzero;stroke:none"
       d="M 48,24 C 61.254834,24 72,34.745166 72,48 72,61.254834 61.254834,72 48,72 34.745166,72 24,61.254834 24,48 24,34.745166 34.745166,24 48,24 z"
       id="rect2419"
       inkscape:connector-curvature="0"
       sodipodi:nodetypes="sssss" />
    <path
       d="M 48,22.03125 C 33.143466,22.03125 21.03125,34.143466 21.03125,49 21.03125,63.856534 33.143466,75.96875 48,75.96875 62.856534,75.96875 74.96875,63.856534 74.96875,49 74.96875,34.143466 62.856534,22.03125 48,22.03125 z M 36.96875,46.25 l 4.8125,2.78125 -4.8125,2.78125 0,-5.5625 z m 12,0 4.8125,2.78125 -4.8125,2.78125 0,-1.78125 0,-0.125 a 1.0401308,1.0401308 0 0 0 -0.03125,-0.25 1.0401308,1.0401308 0 0 0 -0.03125,-0.25 l -0.03125,-0.125 a 1.0401308,1.0401308 0 0 0 0,-0.09375 l -0.03125,-0.09375 a 1.0401308,1.0401308 0 0 0 -0.03125,-0.0625 1.0401308,1.0401308 0 0 0 0.03125,-0.0625 L 48.875,48.875 a 1.0401308,1.0401308 0 0 0 0,-0.09375 l 0.03125,-0.125 A 1.0401308,1.0401308 0 0 0 48.9375,48.4375 l 0,-0.03125 a 1.0401308,1.0401308 0 0 0 0.03125,-0.25 l 0,-0.125 0,-1.78125 z"
       id="path3785"
       style="opacity:0.07999998;fill:#000000;fill-opacity:1;stroke:none"
       inkscape:connector-curvature="0" />
    <path
       d="M 48,23.0625 C 33.708468,23.0625 22.0625,34.708468 22.0625,49 22.0625,63.291532 33.708468,74.9375 48,74.9375 62.291532,74.9375 73.9375,63.291532 73.9375,49 73.9375,34.708468 62.291532,23.0625 48,23.0625 z M 59.9375,43 l 0.125,0 0,12.0625 -0.125,0 0,-5.03125 c 0,-5e-6 0,-0.124995 0,-0.125 0,-5e-6 -0.03125,-0.124995 -0.03125,-0.125 -10e-7,-5e-6 10e-7,-0.124995 0,-0.125 -10e-7,-5e-6 -0.03125,-0.124996 -0.03125,-0.125 -10e-7,-4e-6 -0.03125,-0.09375 -0.03125,-0.09375 -10e-7,-4e-6 -0.0625,-0.124996 -0.0625,-0.125 -2e-6,-4e-6 -0.03125,-0.124996 -0.03125,-0.125 -2e-6,-4e-6 -0.0625,-0.124996 -0.0625,-0.125 -10e-7,-2e-6 -0.01932,-0.01159 -0.03125,-0.03125 C 59.66818,49.01159 59.6875,49 59.6875,49 c 2e-6,-4e-6 0.0625,-0.124996 0.0625,-0.125 2e-6,-4e-6 0.03125,-0.124996 0.03125,-0.125 2e-6,-4e-6 0.0625,-0.124996 0.0625,-0.125 10e-7,-4e-6 0.03125,-0.09375 0.03125,-0.09375 10e-7,-4e-6 0.03125,-0.124995 0.03125,-0.125 10e-7,-5e-6 -10e-7,-0.124995 0,-0.125 10e-7,-5e-6 0.03125,-0.124995 0.03125,-0.125 0,-5e-6 0,-0.124995 0,-0.125 l 0,-5.03125 z m -24,1.4375 7.9375,4.59375 -7.9375,4.59375 0,-9.1875 z m 12,0 7.9375,4.59375 -7.9375,4.59375 0,-3.59375 c 0,-5e-6 0,-0.124995 0,-0.125 0,-5e-6 -0.03125,-0.124995 -0.03125,-0.125 -10e-7,-5e-6 10e-7,-0.124995 0,-0.125 -10e-7,-5e-6 -0.03125,-0.124996 -0.03125,-0.125 -10e-7,-4e-6 -0.03125,-0.09375 -0.03125,-0.09375 -10e-7,-4e-6 -0.0625,-0.124996 -0.0625,-0.125 -2e-6,-4e-6 -0.03125,-0.124996 -0.03125,-0.125 -2e-6,-4e-6 -0.0625,-0.124996 -0.0625,-0.125 -10e-7,-2e-6 -0.01932,-0.01159 -0.03125,-0.03125 C 47.66818,49.01159 47.6875,49 47.6875,49 c 2e-6,-4e-6 0.0625,-0.124996 0.0625,-0.125 2e-6,-4e-6 0.03125,-0.124996 0.03125,-0.125 2e-6,-4e-6 0.0625,-0.124996 0.0625,-0.125 10e-7,-4e-6 0.03125,-0.09375 0.03125,-0.09375 10e-7,-4e-6 0.03125,-0.124995 0.03125,-0.125 10e-7,-5e-6 -10e-7,-0.124995 0,-0.125 10e-7,-5e-6 0.03125,-0.124995 0.03125,-0.125 0,-5e-6 0,-0.124995 0,-0.125 l 0,-3.59375 z"
       id="path3781"
       style="opacity:0.1;fill:#000000;fill-opacity:1;stroke:none"
       inkscape:connector-curvature="0" />
    <path
       d="M 48,24.03125 C 34.227515,24.03125 23.03125,35.227515 23.03125,49 23.03125,62.772485 34.227515,73.96875 48,73.96875 61.772485,73.96875 72.96875,62.772485 72.96875,49 72.96875,35.227515 61.772485,24.03125 48,24.03125 z m 10.96875,18 2.0625,0 0,14 -2.0625,0 0,-6 a 0.9579274,0.9579274 0 0 0 -1.4375,-0.84375 l -10.5625,6.125 0,-5.28125 a 0.9579274,0.9579274 0 0 0 -1.4375,-0.84375 l -10.5625,6.125 0,-12.5625 10.5625,6.125 a 0.9579274,0.9579274 0 0 0 1.4375,-0.84375 l 0,-5.28125 10.5625,6.125 a 0.9579274,0.9579274 0 0 0 1.4375,-0.84375 l 0,-6 z"
       id="path3777"
       style="opacity:0.15;fill:#000000;fill-opacity:1;stroke:none"
       inkscape:connector-curvature="0" />
    <path
       d="M 48,25 C 34.745166,25 24,35.745166 24,49 24,62.254834 34.745166,73 48,73 61.254834,73 72,62.254834 72,49 72,35.745166 61.254834,25 48,25 z m -14,16.0625 12,6.96875 0,-6.96875 12,6.96875 0,-6.96875 4,0 L 62,57 58,57 58,50.03125 46,57 46,50.03125 34,57 34,41.0625 z"
       inkscape:connector-curvature="0"
       id="path3787"
       style="opacity:0.3;fill:#000000;fill-opacity:1;stroke:none" />
    <path
       d="M 48,24 C 34.745166,24 24,34.745166 24,48 24,61.254834 34.745166,72 48,72 61.254834,72 72,61.254834 72,48 72,34.745166 61.254834,24 48,24 z m -14,16.0625 12,6.96875 0,-6.96875 12,6.96875 0,-6.96875 4,0 L 62,56 58,56 58,49.03125 46,56 46,49.03125 34,56 34,40.0625 z"
       inkscape:connector-curvature="0"
       id="path2949"
       style="fill:url(#linearGradient3075);fill-opacity:1;stroke:none" />
    <path
       d="m 48,24 c -13.254834,0 -24,10.745166 -24,24 0,0.165582 -0.0033,0.335217 0,0.5 C 24.263839,35.473936 34.910748,25 48,25 61.089252,25 71.736161,35.473936 72,48.5 72.003338,48.335217 72,48.165582 72,48 72,34.745166 61.254834,24 48,24 z M 46,49.03125 34,56 l 0,1 12,-6.96875 0,-1 z m 12,0 L 46,56 l 0,1 12,-6.96875 0,-1 z M 58,56 l 0,1 4,0 0,-1 -4,0 z"
       inkscape:connector-curvature="0"
       id="path2983"
       style="opacity:0.75;fill:#ffffff;fill-opacity:1;stroke:none" />
    <path
       d="m 34,39.0625 0,1 12,6.96875 0,-1 -12,-6.96875 z m 12,0 0,1 12,6.96875 0,-1 -12,-6.96875 z m 12,0 0,1 4,0 0,-1 -4,0 z M 24,47.5 c -0.0033,0.164783 0,0.334418 0,0.5 0,13.254834 10.745166,24 24,24 13.254834,0 24,-10.745166 24,-24 0,-0.165582 0.0033,-0.335217 0,-0.5 C 71.736161,60.526064 61.089252,71 48,71 34.910748,71 24.263839,60.526064 24,47.5 z"
       inkscape:connector-curvature="0"
       id="path3764"
       style="opacity:0.15;fill:#000000;fill-opacity:1;stroke:none" />
  </g>
</svg>
